<?xml version="1.0" encoding="utf-8"?>
<!-- Generator: Adobe Illustrator 24.1.0, SVG Export Plug-In . SVG Version: 6.00 Build 0)  -->
<svg version="1.1" id="Слой_1" xmlns="http://www.w3.org/2000/svg" xmlns:xlink="http://www.w3.org/1999/xlink" x="0px" y="0px"
	 viewBox="0 0 21 19" style="enable-background:new 0 0 21 19;" xml:space="preserve">
<style type="text/css">
	.st0{fill:#7D7D7D;}
</style>
<path class="st0" d="M18.2,5.7c-0.1,0-0.1,0-0.2,0V1.2C18,0.5,17.5,0,16.7,0h-0.3c-0.6,0-1.1,0.4-1.3,1c-1.6,1-3.2,1.9-4.9,2.6
	C8.5,4.3,6.7,4.9,4.8,5.4C3.8,5.6,3,5.8,2.4,5.9c-0.1,0-0.1,0-0.2,0C1.6,6,1,6,0.4,6C0.2,6,0,6.2,0,6.4v3.7c0,0.2,0.2,0.4,0.4,0.4
	c0.6,0,1.3,0,2,0.1c0,0,0,0,0.1,0v0c0,0,0,0,0.1,0C2.9,10.7,3.4,10.8,4,11v7.1c0,0.2,0.2,0.4,0.4,0.4h2.5h0c0.2,0,0.4-0.2,0.4-0.4
	v-6.2c2.7,0.9,5.4,2.1,7.9,3.7c0.1,0.5,0.6,0.9,1.2,0.9h0.3c0.7,0,1.3-0.6,1.3-1.2v-4.5c0.1,0,0.1,0,0.2,0c1.5,0,2.7-1.1,2.7-2.6
	S19.7,5.7,18.2,5.7z M0.9,9.7V6.8c0.4,0,0.8,0,1.2-0.1v3.1C1.6,9.8,1.2,9.8,0.9,9.7L0.9,9.7z M4.4,10.2C3.8,10.1,3.3,10,2.9,9.9V6.6
	c0.6-0.1,1.3-0.2,2.2-0.5c1.9-0.5,3.8-1.1,5.6-1.9c1.5-0.7,3-1.4,4.5-2.3v12.6c-2.5-1.5-5.2-2.8-8-3.6 M4.8,17.6L4.8,17.6v-6.5
	c0.5,0.1,1.1,0.3,1.6,0.4v6H4.8z M17.2,15.3c0,0.2-0.2,0.4-0.4,0.4h-0.3c-0.2,0-0.4-0.2-0.4-0.4V1.2c0-0.2,0.2-0.4,0.4-0.4h0.3
	c0.2,0,0.4,0.2,0.4,0.4v5v4.1V15.3z M18.2,10c-0.1,0-0.1,0-0.2,0v0V6.5c0.1,0,0.1,0,0.2,0c1,0,1.9,0.8,1.9,1.7
	C20.1,9.2,19.3,10,18.2,10z"/>
</svg>
